<svg width="72" height="14" viewBox="0 0 72 14" fill="none" xmlns="http://www.w3.org/2000/svg">
<g clip-path="url(#clip0_30_311)">
<path fill-rule="evenodd" clip-rule="evenodd" d="M47.4895 7.71084C47.5318 7.99084 47.5529 8.20622 47.6162 8.42161C48.0805 10.4247 49.6214 11.7601 51.6266 11.9324C53.3996 12.0831 54.7926 11.3939 55.8269 9.90776C56.3335 9.19699 57.1566 9.06776 57.811 9.6493C58.1909 9.97238 58.2331 10.4031 57.9376 10.8124C57.7687 11.0278 57.621 11.2431 57.4521 11.4801C56.7767 12.4278 55.8902 13.0739 54.7926 13.4616C53.0196 14.0862 51.2466 14.1724 49.4947 13.5047C47.1307 12.6216 45.7377 10.8555 45.3366 8.33546C45.1044 6.78469 45.2522 5.23392 45.9487 3.83392C46.9619 1.83084 48.5449 0.603149 50.74 0.236995C52.1964 7.18832e-05 53.6317 0.150841 54.9826 0.818533C56.9033 1.74469 58.0642 3.31699 58.5075 5.40623C58.6341 5.98776 58.6763 6.5693 58.7186 7.15084C58.7608 7.51699 58.5919 7.66776 58.2331 7.6893C58.0642 7.6893 57.9165 7.6893 57.7476 7.6893C54.476 7.6893 51.2044 7.6893 47.9539 7.6893C47.8062 7.71084 47.7006 7.71084 47.4895 7.71084ZM56.4179 5.51392C56.1435 3.64007 53.9272 2.00315 51.8798 2.13238C49.748 2.26161 47.6373 3.92007 47.5529 5.51392C50.4868 5.51392 53.4629 5.51392 56.4179 5.51392Z" fill="#CECECE"/>
<path fill-rule="evenodd" clip-rule="evenodd" d="M30.7301 7.64608C30.7512 7.83993 30.7723 7.96916 30.7934 8.11993C31.1944 10.3384 32.9674 11.8676 35.1626 11.9107C36.83 11.9322 38.1176 11.243 39.0885 9.86454C39.5951 9.13224 40.5027 9.04608 41.1359 9.69224C41.4314 10.0153 41.4947 10.403 41.1992 10.7907C41.0726 10.9845 40.9459 11.1569 40.7982 11.3076C40.0805 12.3845 39.0885 13.0738 37.8854 13.483C36.1124 14.0861 34.3394 14.1292 32.6297 13.4399C30.1813 12.4707 28.8093 10.5538 28.5138 7.883C28.3661 6.5907 28.4927 5.34147 29.0204 4.15685C30.0547 1.91685 31.7221 0.538388 34.1494 0.215311C35.437 0.0430031 36.7245 0.150695 37.9065 0.64608C40.0594 1.5507 41.3048 3.25223 41.7902 5.55685C41.8747 6.07377 41.938 6.63377 41.9591 7.1507C41.9802 7.58147 41.8958 7.66762 41.4525 7.66762C40.6926 7.66762 39.8906 7.66762 39.1096 7.66762C36.4923 7.66762 33.875 7.66762 31.3 7.66762C31.11 7.64608 30.9412 7.64608 30.7301 7.64608ZM39.7006 5.44916C39.4262 3.59685 37.2733 2.02454 35.1626 2.06762C33.1152 2.1107 30.9834 3.7907 30.8145 5.44916C33.7695 5.44916 36.7034 5.44916 39.7006 5.44916Z" fill="#CECECE"/>
<path fill-rule="evenodd" clip-rule="evenodd" d="M67.4565 8.63728C67.6254 8.78805 67.7098 8.8742 67.8154 8.96036C68.9551 9.95113 70.0949 10.9419 71.2136 11.9327C71.2769 11.9973 71.3825 12.0834 71.4458 12.1481C71.8679 12.5788 71.9101 13.2034 71.5091 13.6342C71.1292 14.065 70.5382 14.1296 70.0949 13.7634C69.2929 13.0957 68.533 12.4065 67.752 11.7388C66.6334 10.7696 65.5358 9.80036 64.4171 8.83113C64.3327 8.74497 64.206 8.65882 64.0372 8.52959C64.0372 8.76651 64.0161 8.91728 64.0161 9.06805C64.0161 11.8034 64.0161 9.75728 64.0161 12.4927C64.0161 12.6219 64.0161 12.7511 64.0161 12.8804C63.9738 13.4834 63.5306 13.9142 62.9396 13.8711C62.3697 13.8496 61.9898 13.4188 61.9687 12.8157C61.9687 12.6865 61.9687 12.5573 61.9687 12.4281C61.9687 7.0219 61.9687 6.39728 61.9687 0.991127C61.9687 0.818819 61.9687 0.66805 61.9687 0.495743C61.9687 0.10805 62.0109 0.0434348 62.3697 0.0434348C62.8552 0.0218963 63.3406 0.0218963 63.8261 0.0218963C64.987 0.0218963 66.1901 0.0649733 67.351 0.000357877C69.314 -0.085796 71.5091 1.52959 71.7202 3.87728C71.9101 5.98805 70.496 7.99113 68.3853 8.4219C68.1109 8.48651 67.8154 8.57267 67.4565 8.63728ZM63.8894 6.97882C64.0161 7.00036 64.1005 7.00036 64.1638 7.00036C65.1347 7.00036 66.1268 7.00036 67.0977 7.00036C67.3721 7.00036 67.6676 6.97882 67.942 6.87113C68.8496 6.59113 69.5673 6.03113 69.7994 5.04036C70.2005 3.33882 68.9551 1.78805 67.2455 1.78805C66.2323 1.78805 65.2403 1.78805 64.206 1.78805C64.0794 1.78805 63.9739 1.80959 63.8472 1.80959C63.8894 3.53267 63.8894 5.2342 63.8894 6.97882Z" fill="#CECECE"/>
<path fill-rule="evenodd" clip-rule="evenodd" d="M23.1322 7.6678C21.1904 7.6678 19.3118 7.6678 17.3911 7.6678C17.3911 7.84011 17.37 7.99088 17.37 8.14165C17.37 9.64934 17.37 11.1355 17.37 12.6432C17.37 12.837 17.37 13.0309 17.3278 13.1817C17.18 13.634 16.7156 13.914 16.2724 13.8924C15.7869 13.8493 15.3859 13.4616 15.3226 12.9663C15.3015 12.837 15.3226 12.7293 15.3226 12.6001C15.3226 7.23704 15.3015 6.59088 15.3015 1.24934C15.3015 1.03396 15.3226 0.818575 15.3859 0.624729C15.5548 0.172422 16.0191 -0.0860398 16.5046 -0.0214244C16.9478 0.0431909 17.3278 0.430883 17.37 0.904729C17.3911 1.0555 17.37 1.18473 17.37 1.3355C17.37 4.09242 17.3911 2.13242 17.3911 4.88934C17.3911 5.06165 17.4122 5.21242 17.4122 5.36319C17.771 5.44934 22.7523 5.44934 23.1322 5.36319C23.1322 5.23396 23.1533 5.10473 23.1533 4.95396C23.1533 3.74781 23.1533 2.52011 23.1533 1.31396C23.1533 1.18473 23.1533 1.07704 23.1533 0.947806C23.1955 0.409345 23.5966 0.000114035 24.1243 -0.0214244C24.6519 -0.0429629 25.1374 0.366268 25.2007 0.904729C25.2218 1.03396 25.2007 1.14165 25.2007 1.27088C25.2007 5.04011 25.2007 8.7878 25.2007 12.557C25.2007 12.6863 25.2007 12.794 25.2007 12.9232C25.1374 13.4616 24.673 13.8924 24.1454 13.8709C23.6177 13.8493 23.1955 13.4186 23.1322 12.8801C23.1322 12.7509 23.1322 12.6432 23.1322 12.514C23.1322 11.0709 23.1322 9.58473 23.1322 8.14165C23.1322 8.01242 23.1322 7.86165 23.1322 7.6678Z" fill="#CECECE"/>
<path fill-rule="evenodd" clip-rule="evenodd" d="M6.33085 13.9785C4.95888 13.957 3.67135 13.6554 2.48935 12.9231C1.98278 12.6216 1.51842 12.2339 1.13849 11.7816C0.948527 11.5447 0.716348 11.3077 0.63192 11.0062C0.505277 10.6185 0.48417 10.1877 0.842991 9.84313C1.24403 9.45544 1.79281 9.30467 2.3416 9.67082C2.86928 10.0585 3.12256 10.5539 3.56581 11.0062C4.19903 11.6524 5.02221 11.997 5.90871 12.1047C6.73188 12.1908 7.53396 12.1693 8.33603 11.8893C8.65264 11.7601 8.99035 11.6093 9.26474 11.3939C9.77131 10.8124 9.91906 9.9939 9.30696 9.4339C9.01146 9.17544 8.63153 8.98159 8.2516 8.80928C7.32288 8.40005 6.35196 8.12005 5.38103 7.86159C4.57896 7.66775 3.8191 7.40928 3.01703 7.17236C2.72153 7.08621 2.42603 6.9139 2.15163 6.76313C1.41288 6.3539 0.990741 5.70775 0.864098 4.88928C0.63192 3.18775 1.24403 1.65852 2.70042 0.904669C4.97999 -0.236869 7.34399 -0.129177 9.62356 1.18467C10.0457 1.42159 10.4467 1.78775 10.8056 2.11082C11.08 2.34775 11.291 2.69236 11.3966 3.05852C11.5021 3.51082 11.291 3.98467 10.7422 4.1139C10.2779 4.22159 9.85574 4.07082 9.51803 3.70467C9.45471 3.64005 9.39139 3.5539 9.34917 3.48928C8.82149 2.67082 8.04053 2.21852 7.11181 2.04621C6.1831 1.8739 5.25438 1.89544 4.36788 2.26159C4.05128 2.39082 3.71356 2.56313 3.46028 2.80005C3.08035 3.31698 2.9326 4.00621 3.43917 4.65236C3.84021 5.04005 4.30456 5.25544 4.81113 5.36313C5.92981 5.64313 7.0696 5.94467 8.18828 6.22467C8.90592 6.41852 9.60246 6.65544 10.2568 7.04313C11.1011 7.49544 11.7132 8.16313 11.9242 9.13236C12.1775 10.317 11.9242 11.437 11.0166 12.2985C9.98239 13.2462 8.80039 13.7631 7.42842 13.9139C7.04849 13.957 6.66856 13.957 6.33085 13.9785Z" fill="#CECECE"/>
</g>
<defs>
<clipPath id="clip0_30_311">
<rect width="71.2577" height="14" fill="white" transform="translate(0.525696)"/>
</clipPath>
</defs>
</svg>
