<svg width="235" height="52" viewBox="0 0 235 52" fill="none" xmlns="http://www.w3.org/2000/svg">
<g clip-path="url(#clip0_30_289)">
<path fill-rule="evenodd" clip-rule="evenodd" d="M64.3334 25.997L84.1798 6.36499L100.472 25.5149L83.7332 45.1895L64.3334 25.997Z" fill="#6AD136"/>
<path fill-rule="evenodd" clip-rule="evenodd" d="M113.559 40.3685C108.74 47.3804 100.528 52 91.2128 52C91.0082 52 90.8097 52 90.6112 51.9939L83.5906 45.0492L100.392 25.3501H100.708C102.135 26.9551 112.461 39.0809 113.559 40.3685Z" fill="#87DB5E"/>
<path fill-rule="evenodd" clip-rule="evenodd" d="M91.2004 0C100.2 0 108.163 4.30841 113.038 10.9175L100.733 25.3806H100.355L84.1797 6.36498L90.6112 0.00610257C90.8035 0 91.002 0 91.2004 0Z" fill="#87DB5E"/>
<path fill-rule="evenodd" clip-rule="evenodd" d="M28.8207 0H55.756V52H28.8207V0Z" fill="#2E88DB"/>
<path fill-rule="evenodd" clip-rule="evenodd" d="M55.756 52H90.6174L55.756 17.5144V52Z" fill="#52A0EB"/>
<path fill-rule="evenodd" clip-rule="evenodd" d="M55.756 0H90.6174L55.756 34.4856V0Z" fill="#52A0EB"/>
<path fill-rule="evenodd" clip-rule="evenodd" d="M0 0.00622559H20.9504V52.0001H0V0.00622559Z" fill="#FCBA37"/>
<path fill-rule="evenodd" clip-rule="evenodd" d="M32.4241 23.8C40.0277 24.1174 46.1553 30.3359 46.1553 37.8909C46.1553 45.6472 39.7052 51.9939 31.8225 51.9939H20.9008V0.00610352H29.8813C36.6042 0.00610352 42.1054 5.41908 42.1054 12.0343C42.1116 17.7951 37.9439 22.6466 32.4241 23.8Z" fill="#FAC457"/>
<path d="M133.337 22.9822C132.481 22.9822 131.693 22.7809 130.974 22.3842C130.254 21.9875 129.69 21.4383 129.268 20.7487C128.847 20.0591 128.642 19.2902 128.642 18.4419C128.642 17.5998 128.853 16.8308 129.268 16.1352C129.69 15.4395 130.254 14.8963 130.974 14.4997C131.693 14.103 132.481 13.9016 133.337 13.9016C134.155 13.9016 134.906 14.0847 135.576 14.4447C136.246 14.8109 136.779 15.2991 137.163 15.9216L136.078 16.7088C135.762 16.2206 135.377 15.8422 134.912 15.5859C134.453 15.3235 133.926 15.1954 133.343 15.1954C132.741 15.1954 132.189 15.3357 131.699 15.6164C131.21 15.8972 130.819 16.2877 130.54 16.782C130.261 17.2824 130.118 17.8317 130.118 18.448C130.118 19.0644 130.261 19.6136 130.54 20.114C130.819 20.6083 131.203 20.9989 131.699 21.2796C132.189 21.5603 132.741 21.7007 133.343 21.7007C133.932 21.7007 134.453 21.5725 134.912 21.3101C135.371 21.0477 135.762 20.6755 136.078 20.1873L137.163 20.9745C136.785 21.597 136.258 22.0913 135.588 22.4513C134.918 22.7992 134.168 22.9822 133.337 22.9822ZM140.984 15.3052H137.976V14.042H145.437V15.3052H142.417V22.8297H140.984V15.3052ZM146.783 14.042H150.045C150.64 14.042 151.168 14.1579 151.627 14.3837C152.085 14.6095 152.445 14.9268 152.693 15.3357C152.948 15.7446 153.072 16.2084 153.072 16.7332C153.072 17.258 152.948 17.7218 152.693 18.1307C152.439 18.5396 152.085 18.8569 151.627 19.0888C151.168 19.3207 150.64 19.4366 150.045 19.4366H148.215V22.8358H146.783V14.042ZM150.014 18.1856C150.516 18.1856 150.907 18.0575 151.186 17.795C151.459 17.5326 151.602 17.1848 151.602 16.7515C151.602 16.3182 151.465 15.9643 151.186 15.7019C150.913 15.4334 150.523 15.3052 150.014 15.3052H148.215V18.1978H150.014V18.1856ZM158.815 22.9822C157.959 22.9822 157.171 22.7809 156.452 22.3842C155.732 21.9875 155.168 21.4383 154.752 20.7487C154.337 20.0591 154.132 19.2902 154.132 18.4419C154.132 17.5998 154.343 16.8308 154.759 16.1352C155.18 15.4395 155.745 14.8963 156.458 14.4997C157.171 14.103 157.959 13.9016 158.815 13.9016C159.664 13.9016 160.446 14.103 161.171 14.4997C161.891 14.8963 162.461 15.4456 162.883 16.1352C163.305 16.8247 163.516 17.5937 163.516 18.4419C163.516 19.2841 163.305 20.053 162.883 20.7487C162.461 21.4383 161.891 21.9875 161.171 22.3842C160.446 22.7809 159.664 22.9822 158.815 22.9822ZM158.827 21.6885C159.429 21.6885 159.981 21.5481 160.464 21.2674C160.954 20.9867 161.333 20.6022 161.618 20.1018C161.897 19.6014 162.04 19.0461 162.04 18.4236C162.04 17.8195 161.897 17.2702 161.618 16.7698C161.339 16.2755 160.954 15.8849 160.464 15.6042C159.974 15.3235 159.429 15.1831 158.827 15.1831C158.213 15.1831 157.661 15.3235 157.177 15.6042C156.687 15.8849 156.309 16.2694 156.036 16.7637C155.763 17.258 155.621 17.8073 155.621 18.4236C155.621 19.0461 155.757 19.6075 156.036 20.1018C156.309 20.5961 156.694 20.9867 157.177 21.2674C157.661 21.5481 158.213 21.6885 158.827 21.6885ZM172.701 13.8955V22.8358H171.268V16.6905L165.73 22.9761H165.228V14.042H166.66V20.1689L172.199 13.8955H172.701ZM177.049 15.3052H174.041V14.042H181.502V15.3052H178.481V22.8297H177.049V15.3052ZM182.841 14.042H188.714V15.3052H184.274V17.557H187.617V18.7837H184.274V21.5664H188.876V22.8297H182.841V14.042ZM197.366 14.042V22.8358H195.934V15.3052H192.901C192.845 17.2519 192.715 18.7776 192.51 19.8821C192.305 20.9867 192.008 21.7739 191.617 22.2377C191.226 22.7015 190.712 22.9395 190.073 22.9395C189.8 22.9395 189.583 22.9029 189.422 22.8358V21.6214C189.459 21.6397 189.583 21.6458 189.8 21.6458C190.203 21.6458 190.532 21.4139 190.774 20.9501C191.015 20.4863 191.195 19.8089 191.307 18.9118C191.419 18.0147 191.487 16.8675 191.518 15.4761L191.53 14.0359H197.366V14.042ZM199.611 14.042H201.044V17.2946H202.843C203.457 17.2946 204.002 17.4106 204.474 17.6486C204.945 17.8866 205.317 18.21 205.578 18.625C205.838 19.04 205.968 19.5221 205.968 20.0652C205.968 20.6083 205.838 21.0843 205.578 21.5054C205.317 21.9204 204.951 22.2499 204.48 22.4818C204.009 22.7198 203.463 22.8358 202.843 22.8358H199.605V14.042H199.611ZM202.836 21.5786C203.357 21.5786 203.767 21.4383 204.064 21.1576C204.356 20.8768 204.505 20.5107 204.505 20.0591C204.505 19.6075 204.356 19.2414 204.064 18.9606C203.773 18.6799 203.364 18.5396 202.836 18.5396H201.05V21.5786H202.836ZM207.693 14.042H209.125V17.5448H213.622V14.042H215.054V22.8358H213.622V18.8142H209.125V22.8358H207.693V14.042ZM217.318 14.042H218.751V17.2946H220.549C221.163 17.2946 221.709 17.4106 222.18 17.6486C222.652 17.8866 223.024 18.21 223.284 18.625C223.545 19.04 223.675 19.5221 223.675 20.0652C223.675 20.6083 223.545 21.0843 223.284 21.5054C223.024 21.9204 222.658 22.2499 222.187 22.4818C221.715 22.7198 221.17 22.8358 220.549 22.8358H217.312V14.042H217.318ZM220.543 21.5786C221.064 21.5786 221.473 21.4383 221.771 21.1576C222.063 20.8768 222.211 20.5107 222.211 20.0591C222.211 19.6075 222.063 19.2414 221.771 18.9606C221.48 18.6799 221.07 18.5396 220.543 18.5396H218.757V21.5786H220.543ZM225.263 14.042H226.696V22.8358H225.263V14.042ZM228.959 14.042H234.833V15.3052H230.392V17.557H233.735V18.7837H230.392V21.5664H234.994V22.8297H228.959V14.042ZM137.672 27.785V36.7252H136.239V31.2085L133.684 34.51H133.194L130.62 31.1963V36.7252H129.188V27.785H129.69L133.442 32.6975L137.194 27.785H137.672ZM145.276 35.2545H141.257L140.618 36.7191H139.086L143.024 27.7789H143.514L147.453 36.7191H145.908L145.276 35.2545ZM143.272 30.4091L141.772 34.0462H144.761L143.272 30.4091ZM149.964 29.1947H146.956V27.9314H154.417V29.1947H151.397V36.7191H149.964V29.1947ZM155.757 27.9314H161.63V29.1947H157.19V31.4465H160.533V32.6731H157.19V35.4559H161.792V36.7191H155.757V27.9314ZM163.46 27.9314H166.722C167.318 27.9314 167.845 28.0474 168.304 28.2732C168.763 28.499 169.122 28.8163 169.37 29.2252C169.625 29.634 169.749 30.0978 169.749 30.6227C169.749 31.1475 169.625 31.6113 169.37 32.0201C169.116 32.429 168.763 32.7463 168.304 32.9782C167.845 33.2101 167.318 33.3261 166.722 33.3261H164.893V36.7252H163.46V27.9314ZM166.691 32.0751C167.194 32.0751 167.584 31.9469 167.863 31.6845C168.136 31.4221 168.279 31.0742 168.279 30.641C168.279 30.2077 168.142 29.8537 167.863 29.5913C167.59 29.3228 167.2 29.1947 166.691 29.1947H164.893V32.0873H166.691V32.0751ZM178.822 27.785V36.7252H177.39V30.5799L171.851 36.8656H171.349V27.9314H172.782V34.0584L178.32 27.785H178.822ZM186.426 35.2545H182.407L181.768 36.7191H180.236L184.175 27.7789H184.665L188.603 36.7191H187.059L186.426 35.2545ZM184.423 30.4091L182.922 34.0462H185.911L184.423 30.4091ZM196.852 27.9314V36.7252H195.419V29.1947H192.386C192.33 31.1414 192.2 32.667 191.995 33.7716C191.791 34.8761 191.493 35.6634 191.102 36.1272C190.712 36.591 190.197 36.829 189.558 36.829C189.285 36.829 189.068 36.7924 188.907 36.7252V35.5108C188.944 35.5291 189.068 35.5352 189.285 35.5352C189.688 35.5352 190.017 35.3033 190.259 34.8395C190.501 34.3757 190.681 33.6983 190.792 32.8013C190.904 31.9042 190.972 30.7569 191.003 29.3655L191.015 27.9253H196.852V27.9314ZM199.097 27.9314H200.529V31.1841H202.328C202.942 31.1841 203.488 31.3 203.959 31.538C204.43 31.776 204.802 32.0995 205.063 32.5144C205.323 32.9294 205.454 33.4115 205.454 33.9547C205.454 34.4978 205.323 34.9738 205.063 35.3949C204.802 35.8098 204.437 36.1394 203.965 36.3713C203.494 36.6093 202.948 36.7252 202.328 36.7252H199.09V27.9314H199.097ZM202.322 35.4681C202.843 35.4681 203.252 35.3277 203.55 35.047C203.841 34.7663 203.99 34.4001 203.99 33.9486C203.99 33.497 203.841 33.1308 203.55 32.8501C203.258 32.5694 202.849 32.429 202.322 32.429H200.535V35.4681H202.322ZM207.048 27.9314H208.48V36.7252H207.048V27.9314Z" fill="white"/>
</g>
<defs>
<clipPath id="clip0_30_289">
<rect width="235" height="52" fill="white"/>
</clipPath>
</defs>
</svg>
