<svg width="30" height="30" viewBox="0 0 30 30" fill="none" xmlns="http://www.w3.org/2000/svg">
<rect width="30" height="30" rx="6" fill="#1393E2"/>
<g clip-path="url(#clip0_202_8)">
<path d="M20.4102 8.1447L7.08739 13.3866C7.08739 13.3866 6.45534 13.6013 6.50511 14.0007C6.55488 14.4001 7.06749 14.5848 7.06749 14.5848L10.4169 15.7181L10.4218 15.723V15.7181L18.4643 10.5909C18.4643 10.5909 18.9271 10.3064 18.9122 10.5909C18.9122 10.5909 18.9968 10.6409 18.748 10.8755C18.4991 11.1101 12.4275 16.5817 12.4275 16.5817L12.4175 16.6866L17.882 20.8901C18.7928 21.2895 19.1262 20.4558 19.1262 20.4558L21.5001 8.45922C21.5001 7.66045 20.4052 8.1447 20.4102 8.1447Z" fill="white"/>
<path d="M14.5076 18.2942L12.3427 20.2761C12.3427 20.2761 12.1735 20.4059 11.9894 20.3261L12.4025 16.6467" fill="white"/>
</g>
<defs>
<clipPath id="clip0_202_8">
<rect width="15" height="13" fill="white" transform="translate(6.5 8)"/>
</clipPath>
</defs>
</svg>
