<svg width="30" height="30" viewBox="0 0 30 30" fill="none" xmlns="http://www.w3.org/2000/svg">
<rect width="30" height="30" rx="6" fill="#33CE62"/>
<g clip-path="url(#clip0_202_9)">
<path d="M20.664 9.32438C19.16 7.82786 17.16 7 15.032 7C10.648 7 7.064 10.5502 7.064 14.9284C7.064 16.3294 7.432 17.6826 8.12 18.8925L7 23L11.224 21.9015C12.392 22.5383 13.704 22.8726 15.032 22.8726C19.416 22.8726 23 19.3224 23 14.9443C23 12.8109 22.168 10.8209 20.664 9.32438ZM15.032 21.5194C13.848 21.5194 12.68 21.201 11.656 20.596L11.416 20.4527L8.92 21.1214L9.592 18.6856L9.432 18.4308C8.776 17.3801 8.424 16.1701 8.424 14.9284C8.408 11.2985 11.384 8.33731 15.032 8.33731C16.808 8.33731 18.456 9.02189 19.72 10.2637C20.968 11.5055 21.656 13.1612 21.656 14.9284C21.656 18.5582 18.68 21.5194 15.032 21.5194ZM18.664 16.5841C18.472 16.4886 17.48 16.0109 17.304 15.9473C17.128 15.8836 16.984 15.8517 16.856 16.0428C16.728 16.2338 16.344 16.6796 16.232 16.8229C16.12 16.9502 15.992 16.9662 15.8 16.8706C15.608 16.7751 14.952 16.5682 14.2 15.8836C13.608 15.3582 13.208 14.7055 13.096 14.5144C12.984 14.3234 13.08 14.2119 13.176 14.1164C13.272 14.0209 13.368 13.8776 13.48 13.7662C13.576 13.6547 13.608 13.5751 13.672 13.4318C13.736 13.3045 13.704 13.1771 13.656 13.0816C13.608 12.9861 13.208 12.0149 13.048 11.6169C12.888 11.2348 12.728 11.2826 12.6 11.2826C12.488 11.2826 12.344 11.2826 12.216 11.2826C12.088 11.2826 11.864 11.3303 11.688 11.5373C11.512 11.7284 10.984 12.2219 10.984 13.193C10.984 14.1642 11.704 15.1035 11.8 15.2468C11.896 15.3741 13.208 17.3801 15.208 18.2398C15.688 18.4468 16.056 18.5582 16.344 18.6537C16.824 18.797 17.256 18.7811 17.592 18.7333C17.976 18.6697 18.776 18.2557 18.936 17.794C19.096 17.3323 19.096 16.9343 19.048 16.8547C19 16.7274 18.872 16.6796 18.664 16.5841Z" fill="white"/>
</g>
<defs>
<clipPath id="clip0_202_9">
<rect width="16" height="16" fill="white" transform="translate(7 7)"/>
</clipPath>
</defs>
</svg>
